<svg width="44" height="44" viewBox="0 0 44 44" fill="none" xmlns="http://www.w3.org/2000/svg">
<g id="Group">
<path id="Vector" d="M21.6545 43.309C33.614 43.309 43.309 33.614 43.309 21.6545C43.309 9.69506 33.614 0 21.6545 0C9.69506 0 0 9.69506 0 21.6545C0 33.614 9.69506 43.309 21.6545 43.309Z" fill="#232323"/>
<path id="Vector_2" d="M32.9784 21.2572C32.9784 26.2238 29.6011 30.5945 25.2305 32.1838C24.6345 32.3825 24.4358 31.9851 24.4358 31.5878C24.4358 31.1905 24.4358 29.9985 24.4358 28.4092C24.4358 27.4158 24.0385 26.6212 23.6412 26.2238C26.2238 26.0252 28.8065 25.0318 28.8065 20.6612C28.8065 19.4692 28.4091 18.4759 27.6145 17.6812C27.8131 17.2839 28.2105 16.2906 27.4158 14.7013C26.6212 14.3039 24.4358 15.8932 24.4358 15.8932C23.4425 15.6946 22.4492 15.4959 21.6545 15.4959C20.8599 15.4959 19.6679 15.4959 18.6745 15.8932C18.6745 15.8932 16.4892 14.5026 15.4959 14.7013C14.8999 16.2906 15.2972 17.2839 15.4959 17.6812C14.7012 18.4759 14.3039 19.4692 14.3039 20.6612C14.3039 25.0318 16.8866 26.0252 19.4692 26.2238C19.0719 26.6212 18.8732 27.0185 18.6745 27.8132C18.0785 28.2105 16.2906 28.6078 15.2972 26.8198C14.8999 25.8265 13.7079 25.8265 13.7079 25.8265C12.5159 25.8265 13.7079 26.6212 13.7079 26.6212C14.5026 27.0185 14.8999 28.2105 14.8999 28.2105C15.4959 30.1971 18.6745 29.6011 18.6745 29.6011C18.6745 30.5945 18.6745 31.3891 18.6745 31.7865C18.6745 32.1838 18.4759 32.3825 17.8799 32.3825C13.3106 30.7931 10.1319 26.6212 10.1319 21.4559C10.1319 15.0986 15.2972 9.93329 21.6545 9.93329C28.0118 9.93329 32.9784 15.0986 32.9784 21.2572ZM14.3039 26.2238C14.1052 26.2238 14.1052 26.4225 14.3039 26.4225C14.3039 26.4225 14.5026 26.4225 14.3039 26.2238C14.5026 26.2238 14.5026 26.2238 14.3039 26.2238ZM14.8999 26.6212C14.8999 26.6212 14.7012 26.4225 14.7012 26.6212V26.8198C14.7012 26.8198 14.8999 27.0185 14.8999 26.8198C15.0986 26.8198 14.8999 26.6212 14.8999 26.6212ZM15.4959 27.2172C15.4959 27.0185 15.2972 27.0185 15.2972 27.2172V27.4158C15.2972 27.6145 15.4959 27.6145 15.4959 27.6145C15.4959 27.4158 15.4959 27.4158 15.4959 27.2172ZM15.8932 27.8132H15.6946V28.0118C15.8932 28.2105 15.8932 28.2105 16.0919 28.0118C16.0919 28.0118 16.0919 28.0118 15.8932 27.8132ZM16.6879 28.2105C16.4892 28.2105 16.4892 28.2105 16.4892 28.4092C16.4892 28.4092 16.4892 28.6078 16.6879 28.6078C16.8865 28.6078 16.8866 28.6078 16.8866 28.6078C16.8866 28.6078 16.8865 28.4092 16.6879 28.2105ZM17.4825 28.4092C17.2839 28.4092 17.2839 28.4092 17.2839 28.6078C17.2839 28.8065 17.4825 28.8065 17.4825 28.8065C17.6812 28.8065 17.6812 28.8065 17.6812 28.6078C17.8799 28.4092 17.6812 28.4092 17.4825 28.4092ZM18.4759 28.4092C18.2772 28.4092 18.2772 28.6078 18.2772 28.6078L18.4759 28.8065C18.6745 28.8065 18.6745 28.6078 18.6745 28.6078C18.6745 28.4092 18.4759 28.2105 18.4759 28.4092Z" fill="white"/>
</g>
</svg>
