<svg width="44" height="44" viewBox="0 0 44 44" fill="none" xmlns="http://www.w3.org/2000/svg">
<g id="Group">
<path id="Vector" d="M21.6545 43.309C33.614 43.309 43.309 33.614 43.309 21.6545C43.309 9.69506 33.614 0 21.6545 0C9.69506 0 0 9.69506 0 21.6545C0 33.614 9.69506 43.309 21.6545 43.309Z" fill="#232323"/>
<g id="Social_Icon_03_2_">
<g id="Group_2">
<path id="Vector_2" d="M15.8931 18.0786H11.1252V32.1838H15.8931V18.0786Z" fill="white"/>
</g>
<g id="Group_3">
<path id="Vector_3" d="M31.1904 19.2705C30.1971 18.2772 29.0051 17.6812 27.2171 17.6812C26.6211 17.6812 26.0251 17.6812 25.6278 17.8799C25.2305 18.0785 24.6345 18.2772 24.4358 18.4759C24.0385 18.6745 23.8398 19.0719 23.6411 19.2705C23.4425 19.4692 23.2438 19.6679 23.0451 20.0652V18.0785H18.2772V18.6745C18.2772 19.0719 18.2772 20.4625 18.2772 22.8465C18.2772 25.2305 18.2772 28.2105 18.2772 31.9851H22.8465V24.2372C22.8465 23.8398 22.8465 23.4425 23.0451 23.0452C23.2438 22.6478 23.6411 22.2505 24.0385 21.8532C24.4358 21.4559 25.0318 21.4559 25.6278 21.4559C26.4224 21.4559 27.0184 21.6545 27.4158 22.2505C27.8131 22.8465 28.0118 23.6412 28.0118 24.6345V32.1838H32.5811V24.0385C32.5811 22.0519 32.1837 20.4625 31.1904 19.2705Z" fill="white"/>
</g>
<g id="Group_4">
<path id="Vector_4" d="M13.5092 11.3239C12.7146 11.3239 12.1186 11.5226 11.5226 11.9199C11.1252 12.5159 10.7279 13.1119 10.7279 13.7079C10.7279 14.3039 10.9266 14.8999 11.5226 15.4959C11.9199 15.8932 12.5159 16.0919 13.3105 16.0919C14.1052 16.0919 14.7012 15.8932 15.2972 15.4959C15.8932 14.8999 16.0919 14.5026 16.0919 13.7079C16.0919 13.1119 15.8932 12.5159 15.2972 11.9199C14.8999 11.5226 14.3039 11.3239 13.5092 11.3239Z" fill="white"/>
</g>
</g>
</g>
</svg>
